<?xml version="1.0" standalone="no"?>
<!DOCTYPE svg PUBLIC "-//W3C//DTD SVG 20010904//EN"
 "http://www.w3.org/TR/2001/REC-SVG-20010904/DTD/svg10.dtd">
<svg version="1.0" xmlns="http://www.w3.org/2000/svg"
 width="900.000000pt" height="520.000000pt" viewBox="0 0 900.000000 520.000000"
 preserveAspectRatio="xMidYMid meet">

<g transform="translate(0.000000,520.000000) scale(0.100000,-0.100000)"
fill="#000000" stroke="none">
<path d="M4430 4637 c-202 -72 -396 -284 -475 -522 l-26 -78 49 -47 c137 -131
406 -129 980 7 l204 48 -6 42 c-8 63 -61 192 -107 264 -162 250 -404 362 -619
286z m180 -76 c41 -30 55 -82 41 -145 -31 -137 -147 -225 -280 -213 -74 6
-133 34 -145 69 -39 110 197 334 329 313 17 -3 41 -14 55 -24z"/>
<path d="M5166 4098 c4 -24 9 -46 13 -50 3 -4 58 -20 121 -37 304 -78 462
-193 495 -359 l11 -53 75 -33 c177 -76 315 -190 371 -304 31 -62 33 -74 33
-167 0 -92 -3 -105 -32 -168 -94 -197 -331 -338 -650 -386 -103 -16 -371 -14
-510 4 -165 21 -752 72 -967 85 -621 36 -955 -31 -1049 -210 -28 -53 -29 -59
-24 -158 5 -89 4 -104 -10 -109 -58 -22 -216 170 -286 348 -192 484 132 1115
712 1390 129 62 231 93 427 134 15 3 24 17 32 45 5 22 7 40 3 40 -3 0 -49 -7
-101 -15 -186 -30 -362 -91 -522 -181 -593 -334 -869 -1018 -624 -1549 85
-184 234 -344 426 -457 l73 -43 101 -295 c56 -162 117 -323 135 -357 62 -115
139 -170 367 -259 226 -89 508 -150 802 -175 179 -15 580 -7 752 16 270 34
543 101 739 180 135 54 176 75 276 140 104 67 177 142 216 221 29 59 31 70 27
138 -4 63 -11 84 -39 132 -76 126 -283 268 -551 378 -21 8 -38 21 -38 29 0 8
23 102 51 208 29 107 64 241 79 298 l27 104 64 46 c208 153 302 380 240 580
-26 83 -69 148 -150 223 -76 71 -143 114 -257 163 -73 32 -79 37 -85 68 -26
159 -304 335 -657 418 -122 28 -124 28 -116 -23z m-1216 -1681 c17 -8 26 -22
28 -42 15 -144 99 -742 128 -905 53 -309 95 -461 132 -475 12 -4 13 3 9 37
-16 111 -109 1359 -103 1374 5 13 16 16 62 12 30 -3 59 -9 65 -15 6 -6 23
-197 39 -439 48 -702 73 -946 101 -981 12 -13 4 -14 -66 -8 -289 24 -477 60
-645 123 -117 45 -154 81 -215 206 -76 157 -176 502 -246 849 l-24 119 41 38
c41 38 110 67 136 58 8 -4 40 -126 86 -329 115 -506 197 -832 226 -890 l26
-54 -4 90 c-3 56 -33 228 -81 460 -85 418 -135 685 -135 722 0 45 111 72 148
35 13 -13 30 -89 66 -292 125 -717 212 -1089 251 -1070 6 3 9 53 9 125 -2 98
-15 196 -72 535 -39 228 -81 480 -92 559 -21 139 -21 145 -4 158 23 16 101 17
134 0z m623 -49 c14 -12 17 -68 26 -493 10 -480 3 -822 -18 -878 -9 -24 -16
-27 -53 -27 -64 0 -66 4 -57 95 5 44 7 352 6 685 -1 333 2 611 6 618 5 6 23
12 41 12 18 0 40 -6 49 -12z m296 -52 c19 -23 -10 -829 -40 -1096 -11 -106
-34 -207 -50 -227 -7 -7 -27 -13 -46 -13 -31 0 -35 2 -30 23 26 104 42 305 67
857 11 245 22 451 25 458 6 17 60 15 74 -2z m250 -45 c12 -7 12 -32 2 -157
-65 -809 -119 -1114 -196 -1114 -23 0 -24 1 -10 33 26 63 60 315 120 891 19
186 38 342 41 347 7 11 25 11 43 0z m273 -121 c-2 -30 -12 -129 -23 -220 -60
-507 -127 -790 -206 -872 -27 -28 -66 -41 -45 -15 38 46 117 448 208 1055 16
112 17 113 43 110 25 -3 26 -5 23 -58z m254 -24 c6 -15 -53 -366 -92 -546 -60
-283 -122 -437 -189 -473 -17 -9 -18 -8 -9 4 31 38 101 325 189 769 25 129 48
241 50 248 6 16 44 15 51 -2z m264 -101 c14 -17 -4 -108 -66 -340 -70 -256
-160 -435 -219 -435 -3 0 5 19 19 43 63 107 132 322 186 577 17 80 33 151 35
158 6 17 30 15 45 -3z"/>
<path d="M5788 3393 c-14 -9 -43 -44 -64 -76 -60 -94 -127 -153 -229 -202
-190 -93 -411 -125 -1005 -150 -201 -8 -420 -31 -515 -54 -139 -34 -245 -91
-245 -132 0 -18 9 -19 229 -19 125 0 286 -5 357 -10 127 -10 169 -15 609 -66
558 -66 893 -8 1086 185 82 82 104 137 97 245 -6 87 -31 140 -99 208 -80 80
-163 107 -221 71z"/>
</g>
</svg>
